<svg width="324" height="772" viewBox="0 0 324 772" fill="none" xmlns="http://www.w3.org/2000/svg">
<path d="M322.035 1.87695H1V770.123H322.035V1.87695Z" stroke="black" stroke-width="2" stroke-miterlimit="10"/>
<path d="M142.22 769.246V1" stroke="black" stroke-width="2" stroke-miterlimit="10"/>
<path d="M1.87714 267.606H142.22" stroke="black" stroke-width="2" stroke-miterlimit="10"/>
<path d="M1.87714 390.385H142.22" stroke="black" stroke-width="2" stroke-miterlimit="10"/>
<path d="M1.87714 569.292H142.22" stroke="black" stroke-width="2" stroke-miterlimit="10"/>
<path d="M21.1743 634.189H142.22" stroke="black" stroke-width="2" stroke-miterlimit="10"/>
<path d="M21.1743 569.292V769.247" stroke="black" stroke-width="2" stroke-miterlimit="10"/>
<path d="M142.22 11.5239H312.387" stroke="black" stroke-width="2" stroke-miterlimit="10"/>
<path d="M321.158 1L312.387 11.5239" stroke="black" stroke-width="2" stroke-miterlimit="10"/>
<path d="M189.586 756.969V769.247" stroke="black" stroke-width="2" stroke-miterlimit="10" stroke-linecap="round"/>
<path d="M312.387 756.969H189.586" stroke="black" stroke-width="2" stroke-miterlimit="10" stroke-linecap="round"/>
<path d="M322.912 769.247L312.387 756.969" stroke="black" stroke-width="2" stroke-miterlimit="10"/>
<path d="M312.387 11.5239V756.968" stroke="black" stroke-width="2" stroke-miterlimit="10"/>
<path d="M147.483 769.246V741.183" stroke="black" stroke-width="2" stroke-miterlimit="10" stroke-linecap="round"/>
<path d="M173.798 769.246C172.535 753.11 163.763 743.755 147.483 741.183" stroke="black" stroke-width="2" stroke-miterlimit="10" stroke-linecap="round"/>
<path d="M28.1915 769.246V741.183" stroke="black" stroke-width="2" stroke-miterlimit="10" stroke-linecap="round"/>
<path d="M54.5059 769.246C53.2428 753.11 44.4713 743.755 28.1915 741.183" stroke="black" stroke-width="2" stroke-miterlimit="10" stroke-linecap="round"/>
<path d="M133.449 694.702C133.446 708.736 127.928 722.208 118.083 732.212C108.238 742.216 94.8553 747.951 80.8203 748.181V693.807L26.4372 693.106C26.6466 678.918 32.4846 665.394 42.6669 655.509C52.8493 645.625 66.5419 640.189 80.7325 640.398C94.9232 640.608 108.449 646.445 118.336 656.625C128.222 666.806 133.658 680.496 133.449 694.684V694.702Z" stroke="black" stroke-width="2" stroke-miterlimit="10" stroke-linecap="round"/>
<path d="M80.8203 693.825L26.4548 693.124" stroke="black" stroke-width="2" stroke-miterlimit="10" stroke-linecap="round"/>
<path d="M133.449 693.825L79.0835 693.124" stroke="black" stroke-width="2" stroke-miterlimit="10" stroke-linecap="round"/>
<path d="M80.8203 748.181V693.825" stroke="black" stroke-width="2" stroke-miterlimit="10" stroke-linecap="round"/>
<path d="M142.22 542.982H170.289" stroke="black" stroke-width="2" stroke-miterlimit="10" stroke-linecap="round"/>
<path d="M142.22 569.292C158.36 568.029 167.716 559.259 170.289 542.982" stroke="black" stroke-width="2" stroke-miterlimit="10" stroke-linecap="round"/>
<path d="M142.22 460.545H170.289" stroke="black" stroke-width="2" stroke-miterlimit="10" stroke-linecap="round"/>
<path d="M142.22 486.855C158.36 485.592 167.716 476.822 170.289 460.545" stroke="black" stroke-width="2" stroke-miterlimit="10" stroke-linecap="round"/>
<path d="M142.22 299.178H170.289" stroke="black" stroke-width="2" stroke-miterlimit="10" stroke-linecap="round"/>
<path d="M142.22 325.488C158.36 324.225 167.716 315.455 170.289 299.178" stroke="black" stroke-width="2" stroke-miterlimit="10" stroke-linecap="round"/>
<path d="M80.8203 693.825V641.205" stroke="black" stroke-width="2" stroke-miterlimit="10" stroke-linecap="round"/>
<path d="M54.5059 648.221L80.8203 693.825" stroke="black" stroke-width="2" stroke-miterlimit="10" stroke-linecap="round"/>
<path d="M80.8203 693.825L126.432 716.627" stroke="black" stroke-width="2" stroke-miterlimit="10" stroke-linecap="round"/>
<path d="M33.4544 669.269L80.8203 693.825" stroke="black" stroke-width="2" stroke-miterlimit="10" stroke-linecap="round"/>
<path d="M128.186 672.777L80.8203 693.825" stroke="black" stroke-width="2" stroke-miterlimit="10" stroke-linecap="round"/>
<path d="M108.889 649.975L80.8203 693.825" stroke="black" stroke-width="2" stroke-miterlimit="10" stroke-linecap="round"/>
<path d="M80.8203 693.825L108.889 737.675" stroke="black" stroke-width="2" stroke-miterlimit="10" stroke-linecap="round"/>
</svg>
