<svg width="331" height="122" viewBox="0 0 331 122" fill="none" xmlns="http://www.w3.org/2000/svg">
<path d="M24 97.5C19.7333 97.5 15.6333 96.9 11.7 95.7C7.83333 94.4333 4.8 92.8667 2.6 91L5.8 85.4C8 87.1333 10.7667 88.5667 14.1 89.7C17.4333 90.7667 20.9 91.3 24.5 91.3C29.3 91.3 32.8333 90.5667 35.1 89.1C37.4333 87.5667 38.6 85.4333 38.6 82.7C38.6 80.7667 37.9667 79.2667 36.7 78.2C35.4333 77.0667 33.8333 76.2333 31.9 75.7C29.9667 75.1 27.4 74.5333 24.2 74C19.9333 73.2 16.5 72.4 13.9 71.6C11.3 70.7333 9.06667 69.3 7.2 67.3C5.4 65.3 4.5 62.5333 4.5 59C4.5 54.6 6.33333 51 10 48.2C13.6667 45.4 18.7667 44 25.3 44C28.7 44 32.1 44.4667 35.5 45.4C38.9 46.2667 41.7 47.4333 43.9 48.9L40.8 54.6C36.4667 51.6 31.3 50.1 25.3 50.1C20.7667 50.1 17.3333 50.9 15 52.5C12.7333 54.1 11.6 56.2 11.6 58.8C11.6 60.8 12.2333 62.4 13.5 63.6C14.8333 64.8 16.4667 65.7 18.4 66.3C20.3333 66.8333 23 67.4 26.4 68C30.6 68.8 33.9667 69.6 36.5 70.4C39.0333 71.2 41.2 72.5667 43 74.5C44.8 76.4333 45.7 79.1 45.7 82.5C45.7 87.1 43.7667 90.7667 39.9 93.5C36.1 96.1667 30.8 97.5 24 97.5ZM85.9258 44C90.8591 44 95.3258 45.1333 99.3258 47.4C103.326 49.6 106.459 52.7333 108.726 56.8C110.992 60.8667 112.126 65.5 112.126 70.7C112.126 75.9667 110.992 80.6333 108.726 84.7C106.459 88.7667 103.326 91.9333 99.3258 94.2C95.3924 96.4 90.9258 97.5 85.9258 97.5C81.6591 97.5 77.7924 96.6333 74.3258 94.9C70.9258 93.1 68.1258 90.5 65.9258 87.1V116.4H58.8258V44.4H65.6258V54.8C67.7591 51.3333 70.5591 48.6667 74.0258 46.8C77.5591 44.9333 81.5258 44 85.9258 44ZM85.4258 91.2C89.0924 91.2 92.4258 90.3667 95.4258 88.7C98.4258 86.9667 100.759 84.5333 102.426 81.4C104.159 78.2667 105.026 74.7 105.026 70.7C105.026 66.7 104.159 63.1667 102.426 60.1C100.759 56.9667 98.4258 54.5333 95.4258 52.8C92.4258 51.0667 89.0924 50.2 85.4258 50.2C81.6924 50.2 78.3258 51.0667 75.3258 52.8C72.3924 54.5333 70.0591 56.9667 68.3258 60.1C66.6591 63.1667 65.8258 66.7 65.8258 70.7C65.8258 74.7 66.6591 78.2667 68.3258 81.4C70.0591 84.5333 72.3924 86.9667 75.3258 88.7C78.3258 90.3667 81.6924 91.2 85.4258 91.2Z" fill="white"/>
<path d="M214.6 93.8C213.267 95 211.6 95.9333 209.6 96.6C207.667 97.2 205.633 97.5 203.5 97.5C198.567 97.5 194.767 96.1667 192.1 93.5C189.433 90.8333 188.1 87.0667 188.1 82.2V50.4H178.7V44.4H188.1V32.9H195.2V44.4H211.2V50.4H195.2V81.8C195.2 84.9333 195.967 87.3333 197.5 89C199.1 90.6 201.367 91.4 204.3 91.4C205.767 91.4 207.167 91.1667 208.5 90.7C209.9 90.2333 211.1 89.5667 212.1 88.7L214.6 93.8Z" fill="white"/>
<path d="M308.7 44C315.3 44 320.533 45.9333 324.4 49.8C328.333 53.6 330.3 59.1667 330.3 66.5V97H323.2V67.2C323.2 61.7333 321.833 57.5667 319.1 54.7C316.367 51.8333 312.467 50.4 307.4 50.4C301.733 50.4 297.233 52.1 293.9 55.5C290.633 58.8333 289 63.4667 289 69.4V97H281.9V44.4H288.7V54.1C290.633 50.9 293.3 48.4333 296.7 46.7C300.167 44.9 304.167 44 308.7 44Z" fill="white"/>
<circle cx="149.5" cy="69.5" r="24" stroke="white" stroke-width="7"/>
<circle cx="244.5" cy="69.5" r="24" fill="#65FA86" stroke="#51C68E" stroke-width="7"/>
</svg>
