<svg width="326" height="772" viewBox="0 0 326 772" fill="none" xmlns="http://www.w3.org/2000/svg">
<path d="M323.123 1.87695H2V770.003H323.123V1.87695Z" fill="#7336F5" stroke="white" stroke-width="3" stroke-miterlimit="10"/>
<path d="M143.259 769.126V1" stroke="white" stroke-width="3" stroke-miterlimit="10"/>
<path d="M2.87732 267.564H143.259" stroke="white" stroke-width="3" stroke-miterlimit="10"/>
<path d="M2.87738 390.324H143.259" stroke="white" stroke-width="3" stroke-miterlimit="10"/>
<path d="M2.87738 569.203H143.259" stroke="white" stroke-width="3" stroke-miterlimit="10"/>
<path d="M22.1798 634.09H143.259" stroke="white" stroke-width="3" stroke-miterlimit="10"/>
<path d="M22.1798 569.203V769.126" stroke="white" stroke-width="3" stroke-miterlimit="10"/>
<path d="M143.259 11.5215H313.471" stroke="white" stroke-width="3" stroke-miterlimit="10"/>
<path d="M322.245 1L313.471 11.5223" stroke="white" stroke-width="3" stroke-miterlimit="10"/>
<path d="M190.638 756.85V769.126" stroke="white" stroke-width="3" stroke-miterlimit="10" stroke-linecap="round"/>
<path d="M313.471 756.85H190.638" stroke="white" stroke-width="3" stroke-miterlimit="10" stroke-linecap="round"/>
<path d="M324 769.126L313.471 756.85" stroke="white" stroke-width="3" stroke-miterlimit="10"/>
<path d="M313.471 11.5215V756.849" stroke="white" stroke-width="3" stroke-miterlimit="10"/>
<path d="M148.523 769.126V741.066" stroke="white" stroke-width="3" stroke-miterlimit="10" stroke-linecap="round"/>
<path d="M174.844 769.126C173.581 752.992 164.807 743.639 148.523 741.066Z" fill="#7336F5"/>
<path d="M174.844 769.126C173.581 752.992 164.807 743.639 148.523 741.066" stroke="white" stroke-width="3" stroke-miterlimit="10" stroke-linecap="round"/>
<path d="M29.1989 769.126V741.066" stroke="white" stroke-width="3" stroke-miterlimit="10" stroke-linecap="round"/>
<path d="M55.5196 769.126C54.2563 752.992 45.4827 743.639 29.1989 741.066Z" fill="#7336F5"/>
<path d="M55.5196 769.126C54.2563 752.992 45.4827 743.639 29.1989 741.066" stroke="white" stroke-width="3" stroke-miterlimit="10" stroke-linecap="round"/>
<path d="M134.485 694.594C134.482 708.626 128.962 722.095 119.115 732.098C109.267 742.1 95.8808 747.834 81.842 748.064V693.699L27.4442 692.998C27.6536 678.812 33.4932 665.29 43.6783 655.407C53.8634 645.524 67.5597 640.089 81.7542 640.299C95.9488 640.508 109.479 646.344 119.368 656.523C129.257 666.702 134.694 680.39 134.485 694.576V694.594Z" fill="#7336F5" stroke="white" stroke-width="3" stroke-miterlimit="10" stroke-linecap="round"/>
<path d="M81.842 693.717L27.4617 693.016" stroke="white" stroke-width="3" stroke-miterlimit="10" stroke-linecap="round"/>
<path d="M134.485 693.717L80.1047 693.016" stroke="white" stroke-width="3" stroke-miterlimit="10" stroke-linecap="round"/>
<path d="M81.8419 748.064V693.717" stroke="white" stroke-width="3" stroke-miterlimit="10" stroke-linecap="round"/>
<path d="M143.259 542.896H171.334" stroke="white" stroke-width="3" stroke-miterlimit="10" stroke-linecap="round"/>
<path d="M143.259 569.202C159.402 567.939 168.761 559.171 171.334 542.896Z" fill="#7336F5"/>
<path d="M143.259 569.202C159.402 567.939 168.761 559.171 171.334 542.896" stroke="white" stroke-width="3" stroke-miterlimit="10" stroke-linecap="round"/>
<path d="M143.259 460.473H171.334" stroke="white" stroke-width="3" stroke-miterlimit="10" stroke-linecap="round"/>
<path d="M143.259 486.778C159.402 485.516 168.761 476.747 171.334 460.473Z" fill="#7336F5"/>
<path d="M143.259 486.778C159.402 485.516 168.761 476.747 171.334 460.473" stroke="white" stroke-width="3" stroke-miterlimit="10" stroke-linecap="round"/>
<path d="M143.259 299.131H171.334" stroke="white" stroke-width="3" stroke-miterlimit="10" stroke-linecap="round"/>
<path d="M143.259 325.437C159.402 324.174 168.761 315.405 171.334 299.131Z" fill="#7336F5"/>
<path d="M143.259 325.437C159.402 324.174 168.761 315.405 171.334 299.131" stroke="white" stroke-width="3" stroke-miterlimit="10" stroke-linecap="round"/>
<path d="M81.8419 693.717V641.105" stroke="white" stroke-width="3" stroke-miterlimit="10" stroke-linecap="round"/>
<path d="M55.5204 648.119L81.8411 693.716" stroke="white" stroke-width="3" stroke-miterlimit="10" stroke-linecap="round"/>
<path d="M81.8419 693.717L127.466 716.515" stroke="white" stroke-width="3" stroke-miterlimit="10" stroke-linecap="round"/>
<path d="M34.4632 669.164L81.8419 693.716" stroke="white" stroke-width="3" stroke-miterlimit="10" stroke-linecap="round"/>
<path d="M129.221 672.672L81.8419 693.717" stroke="white" stroke-width="3" stroke-miterlimit="10" stroke-linecap="round"/>
<path d="M109.917 649.873L81.842 693.716" stroke="white" stroke-width="3" stroke-miterlimit="10" stroke-linecap="round"/>
<path d="M81.842 693.717L109.917 737.559" stroke="white" stroke-width="3" stroke-miterlimit="10" stroke-linecap="round"/>
</svg>
